<svg xmlns="http://www.w3.org/2000/svg" width="555" height="555" viewBox="0 0 555 555">
  <defs>
    <linearGradient id="5b0c8c4a15edac33d1bfcfc6_brand-preview-2-a" x1="31.004%" x2="71.484%" y1="4.141%" y2="94.797%">
      <stop offset="0%" stop-color="#2E3973"/>
      <stop offset="100%" stop-color="#141729"/>
    </linearGradient>
  </defs>
  <g fill="none" fill-rule="evenodd">
    <rect width="555" height="555" fill="#F7F9FA" fill-rule="nonzero"/>
    <rect width="320" height="320" x="118" y="118" fill="url(#5b0c8c4a15edac33d1bfcfc6_brand-preview-2-a)"/>
    <path fill="#FFF" fill-rule="nonzero" stroke="#FFF" stroke-width=".5" d="M335.896714,351.162651 C335.065415,351.162651 334.231688,351.14567 333.397329,351.111833 C321.617113,368.995963 301.647258,379.878049 279.989518,379.878049 L279.989518,363.567179 C297.487125,363.567179 313.484382,354.051221 321.859289,338.667349 L324.526512,333.767925 L330.05958,334.477573 C331.996322,334.725971 333.959629,334.851781 335.896714,334.851781 C360.977375,334.851781 381.39502,314.43394 381.39502,289.353476 C381.39502,275.903178 375.15509,262.728507 364.723663,254.156354 L361.506864,251.51291 L361.761302,247.357088 C361.814075,246.49513 361.840768,245.618071 361.840768,244.749637 C361.840768,220.681077 342.245611,201.086116 318.176495,201.086116 C309.506702,201.086116 301.15527,203.617074 293.951054,208.425591 L287.878896,212.478505 L283.180997,206.890396 C274.840355,196.969275 262.70043,191.310869 249.746009,191.310869 C225.677253,191.310869 206.08324,210.905471 206.08324,234.97439 C206.08324,235.646556 206.099143,236.32654 206.130675,236.999435 L206.390277,242.539351 L201.333596,244.817077 C184.895042,252.221641 174.310869,268.582362 174.310869,286.603929 C174.310869,311.853317 194.865117,332.408157 220.113594,332.408157 C222.797791,332.408157 225.4883,332.173899 228.11398,331.711632 L234.23809,330.633444 L236.899049,336.253631 C244.763633,352.864346 261.643743,363.567179 279.989518,363.567179 L279.989518,379.878049 C257.345883,379.878049 236.421226,367.782079 224.976976,348.529924 C223.359509,348.655803 221.735945,348.719027 220.113594,348.719027 C185.856767,348.719027 158,320.861456 158,286.603929 C158,263.96877 170.306865,243.273082 189.828367,232.364745 C191.198603,200.494173 217.543228,175 249.746009,175 C265.18309,175 279.818097,180.875959 290.893723,191.33681 C299.311093,187.027131 308.617659,184.775247 318.176495,184.775247 C351.0893,184.775247 377.883918,211.405897 378.149643,244.256549 C390.483887,255.871241 397.705889,272.381407 397.705889,289.353476 C397.705889,323.442149 369.985655,351.162651 335.896714,351.162651 Z M310.972023,298.314933 C305.433029,300.433754 299.979448,301.50684 294.733642,301.50684 C289.469952,301.50684 284.277338,300.427661 279.314867,298.305453 C279.114711,298.222153 279.114711,298.222153 278.914878,298.137117 C277.086105,297.350063 276.302923,296.402383 276.302923,294.323104 L276.302923,291.546498 C276.302923,289.104791 277.709661,287.533235 280.001995,287.533235 L280.515826,287.602854 L280.652615,287.656187 C285.191668,289.446319 289.92575,290.353437 294.725374,290.353437 C299.544317,290.353437 304.589861,289.439666 309.720374,287.634528 L310.181614,287.533235 L310.310146,287.533235 C312.60308,287.533235 314.00997,289.104638 314.00997,291.546498 L314.00997,294.323104 C314.00997,296.53305 313.251571,297.33435 311.132408,298.246183 L310.972023,298.314933 Z M242.967483,271.693461 C241.410468,272.020252 240.249588,273.253499 240.249588,275.491416 L240.249588,280.146403 C240.249588,281.904743 241.329136,283.112614 243.009094,283.112614 C243.402313,283.112614 243.806079,283.046834 244.259185,282.913025 L271.0739,274.238716 C273.109727,273.56015 274.226933,271.926918 274.226933,269.69091 L274.226933,265.823656 C274.226933,263.587016 273.108435,261.954738 271.075729,261.277169 L244.317313,252.620567 C243.842369,252.441436 243.366921,252.34182 242.908373,252.34182 C241.489728,252.34182 240.249588,253.231178 240.249588,255.296756 L240.249588,260.02315 C240.249588,262.175227 241.373689,263.405059 242.932076,263.813013 L257.960385,267.757704 L242.967483,271.693461 Z"/>
  </g>
</svg>
