<svg height="60" viewBox="0 0 120 59.999999" width="120" xmlns="http://www.w3.org/2000/svg"><g fill="#3c8dbc" transform="matrix(1.3333333 0 0 -1.3333333 31.25374201572 770.35078133333)"><g transform="matrix(.03596102582 0 0 .03596102582 8.70309051356 530.4119190293)"><path d="m108.93674 747.9306q30.35217 0 47.52107-23.76053 17.16891-23.60725 17.16891-64.84328 0-42.46237-17.78208-65.76303-17.62879-23.30066-48.13425-23.30066-30.198879 0-47.367783 21.92102h-3.21917l-7.817983-18.85514h-35.717453v238.52513h46.754606v-55.49235q0-10.57727-1.839526-33.87792h1.839526q16.402435 25.44676 48.594133 25.44676zm-15.022794-37.40368q-17.322198 0-25.293475-10.73057-7.971277-10.57727-8.277864-35.10427v-5.0587q0-27.59288 8.124571-39.5498 8.277864-11.95691 26.059944-11.95691 14.409618 0 22.840778 13.18327 8.58445 13.33655 8.58445 38.63003 0 25.29348-8.58445 37.86357-8.58446 12.72338-23.453954 12.72338z"/><path d="m210.32281 789.01334q0 22.84077 25.44677 22.84077 25.44676 0 25.44676-22.84077 0-10.88386-6.43833-17.01561-6.28505-5.97846-19.00843-5.97846-25.44677 0-25.44677 22.99407zm48.74742-215.68436h-46.7546v171.38245h46.7546z"/><path d="m380.27043 607.51349q12.26351 0 29.43241 5.36529v-34.79769q-17.47549-7.81799-42.92226-7.81799-28.05276 0-40.92944 14.10303-12.72339 14.25632-12.72339 42.61568v82.62535h-22.38089v19.7749l25.75336 15.63596 13.48985 36.17734h29.89229v-36.48393h47.98096v-35.10427h-47.98096v-82.62535q0-9.9641 5.51858-14.71621 5.67187-4.75211 14.86949-4.75211z"/></g><g stroke-width="1.987602" transform="matrix(.03596102582 0 0 -.03596102582 8.70309051356 530.4119190293)"><path d="m580.92821-573.32898-36.48392-111.44458q-3.52576-11.34374-9.04434-33.26476h-.91976l-3.21917 11.34374-6.89822 22.2276-37.0971 111.138h-15.02279l-47.67437-166.63035h16.24915l26.67311 96.57509q9.35093 35.87075 12.26351 52.73306h.91976q9.04433-35.87074 13.18327-47.67437l34.33781-101.63378h13.79644l32.65157 101.3272q11.03716 36.02404 13.48986 47.67436h.91976q1.22635-9.96409 12.2635-53.34623l25.44677-95.65533h15.32938l-45.22167 166.63035z"/><path d="m775.87256-573.32898-3.83234-26.36653h-1.22635q-12.57009 16.09585-25.90665 22.84077-13.18327 6.59164-31.27193 6.59164-24.52701 0-38.17016-12.57009-13.64314-12.5701-13.64314-34.79769 0-24.37372 20.23478-37.86357 20.38807-13.48985 58.86481-14.25632l31.73181-.91977v-11.03715q0-23.76054-9.6575-35.87074-9.65751-12.11021-31.11864-12.11021-23.14737 0-47.98096 12.87667l-5.67187-13.18326q27.43959-12.87668 54.266-12.87668 27.43959 0 40.92944 14.25632 13.64315 14.25633 13.64315 44.4552v110.83141zm-61.31751-10.73056q26.67312 0 42.0025-15.17609 15.48267-15.32938 15.48267-42.46238v-16.40243l-29.12582 1.22635q-35.10428 1.68623-50.12707 11.03715-14.8695 9.19763-14.8695 28.81923 0 15.63597 9.50422 24.37371 9.65751 8.58446 27.133 8.58446z"/><path d="m906.69958-743.1785q10.57727 0 22.68748 2.14612l-2.91258 14.56291q-10.42398-2.606-21.61443-2.606-21.30783 0-34.95098 18.08867-13.64315 18.08867-13.64315 45.68155v91.97627h-15.17608v-166.63035h12.87668l1.53293 30.04559h1.07306q10.27068-18.39526 21.92101-25.75336 11.65033-7.5114 28.20606-7.5114z"/><path d="m1024.2256-743.1785q18.0887 0 31.272 6.59164 13.1832 6.59163 23.6072 22.53418h.9198q-.9198-19.31501-.9198-37.86356v-59.93787h15.0228v238.52513h-9.9641l-3.8323-25.44677h-1.2264q-19.0084 28.51265-54.5726 28.51265-34.49107 0-52.73303-21.46113-18.24196-21.46113-18.24196-62.54387 0-43.22885 18.08866-66.06962 18.08867-22.84078 52.57973-22.84078zm0 13.79644q-27.28625 0-41.08269 19.16173-13.64315 19.16172-13.64315 55.64564 0 70.82173 55.03244 70.82173 28.2061 0 41.3894-16.40243 13.1832-16.40244 13.1832-54.11271v-2.60599q0-38.63004-13.03-55.49236-12.8766-17.01561-41.8492-17.01561z"/><path d="m1217.3084-570.2631q-36.3307 0-56.7187-22.3809-20.2348-22.38089-20.2348-62.69716 0-39.85638 19.6216-63.77021 19.6216-24.06713 52.8863-24.06713 29.4324 0 46.4481 20.54137 17.0156 20.54137 17.0156 55.79894v12.2635h-120.0291q.3066 34.33781 15.9426 52.42648 15.7892 18.08867 45.0684 18.08867 14.2563 0 24.9868-1.99282 10.8839-1.99282 27.4396-8.58446v13.79644q-14.103 6.13176-26.0599 8.27787-11.9569 2.29941-26.3665 2.29941zm-4.4456-159.42554q-24.0671 0-38.63 15.94255-14.5629 15.78926-17.0156 45.68155h103.0134q0-28.97253-12.5701-45.22167-12.5701-16.40243-34.7977-16.40243z"/><path d="m1438.5653-573.32898v-108.07212q0-25.14018-10.5773-36.48392-10.5773-11.49704-32.8049-11.49704-29.8923 0-43.842 15.17609-13.7964 15.02279-13.7964 48.90072v91.97627h-15.1761v-166.63035h12.8767l2.9125 22.84078h.9198q16.2492-26.05995 57.7918-26.05995 56.7187 0 56.7187 60.85764v108.99188z"/></g><path d="m4.0858179 567.33102v-13.16528c0-.98251-.1914054-1.95686-.5742137-2.92239-.3829782-.96602-.8573252-1.82284-1.4226209-2.57172-.5660531-.74845-1.24047-1.47663-2.0228312-2.18529-.7832031-.70883-1.5058294-1.29718-2.1688039-1.7658-.6627234-.46829-1.354136-.91126-2.0739849-1.32856-.7200187-.41705-1.2316373-.69974-1.5343508-.84841-.3027136-.14875-.545692-.26309-.728515-.34301-.1371382-.0683-.285887-.10265-.4456579-.10265-.1600229 0-.3085189.0344-.4457408.10265-.1829075.0799-.4257177.19426-.7283476.34301-.3031345.14867-.8143321.43136-1.5344346.84841-.7200176.4173-1.4115136.86027-2.0743216 1.32856-.662722.46862-1.385517 1.05697-2.168383 1.7658-.782866.70866-1.456947 1.43684-2.022579 2.18529-.565717.74888-1.040064 1.6057-1.422957 2.57172-.382893.96553-.574298 1.93988-.574298 2.92239v13.16528c0 .29716.108701.55452.32585.77142.216982.21715.474264.32585.771256.32585h19.7482486c.29674 0 .5536005-.1087.7709188-.32585.2172337-.2169.3257665-.47426.3257665-.77142m-3.2914872-13.16528v10.97123h-7.6794911v-19.49054c1.3596884.72002 2.5771063 1.50271 3.6514117 2.34834 2.6853029 2.10268 4.0280794 4.15975 4.0280794 6.17097"/></g></svg>