<?xml version="1.0" standalone="no"?><!DOCTYPE svg PUBLIC "-//W3C//DTD SVG 1.1//EN" "http://www.w3.org/Graphics/SVG/1.1/DTD/svg11.dtd"><svg t="1591537647619" class="icon" viewBox="0 0 1024 1024" version="1.1" xmlns="http://www.w3.org/2000/svg" p-id="891" xmlns:xlink="http://www.w3.org/1999/xlink" width="200" height="200"><defs><style type="text/css"></style></defs><path d="M510 896.7l217.3-332.2c26.7-44.2 54.3-89.9 54.3-162.8 0-149.8-121.9-271.8-271.8-271.8-149.8 0.1-271.7 122-271.7 271.8 0 72.8 27.6 118.5 54.9 163.7l217 331.3z m-0.1-706.1c116.4 0 211.1 94.7 211.1 211.1 0 52.2-17.2 84.5-45 130.5L510 786 344.4 533.2c-28.4-47-45.6-79.3-45.6-131.4-0.1-116.5 94.7-211.2 211.1-211.2z" p-id="892" fill="#13227a"></path><path d="M509.9 537.9c69.6 0 126.3-56.7 126.3-126.3s-56.6-126.3-126.3-126.3-126.3 56.6-126.3 126.3 56.7 126.3 126.3 126.3z m0-192c36.2 0 65.6 29.4 65.6 65.6 0 36.2-29.4 65.7-65.6 65.7-36.2 0-65.7-29.4-65.7-65.7 0-36.1 29.5-65.6 65.7-65.6z" p-id="893" fill="#13227a"></path></svg>